<?xml version="1.0" encoding="UTF-8" standalone="no"?>
<svg
   xml:space="preserve"
   version="1.1"
   style="image-rendering:optimizeQuality;shape-rendering:geometricPrecision;text-rendering:geometricPrecision"
   viewBox="-602028 20439 600 600"
   x="0px"
   y="0px"
   fill-rule="evenodd"
   clip-rule="evenodd"
   id="svg3"
   width="600"
   height="600"
   xmlns="http://www.w3.org/2000/svg"
   xmlns:svg="http://www.w3.org/2000/svg">
   <path
      id="path1-1"
      style="fill:#00cc00;stroke:none;stroke-width:0.999998;image-rendering:optimizeQuality;shape-rendering:geometricPrecision;text-rendering:geometricPrecision"
      d="m -601923.19,20571.816 c -1.52,0 -3.05,0.193 -4.56,0.597 -2.97,0.795 -5.68,2.358 -7.85,4.53 -6.83,6.834 -6.83,17.914 0,24.748 l 57.21,57.216 c -41.36,22.872 -80.65,56.365 -115.92,100.482 -4.4,5.51 -4.4,13.121 0,18.631 68.77,85.831 157.32,137.521 253.97,137.521 34.43,0 67.84,-6.562 99.69,-18.891 l 70.84,70.847 c 6.84,6.835 17.92,6.835 24.75,0 6.84,-6.834 6.84,-17.914 0,-24.749 l -61.69,-61.692 v -0.02 l -45.9,-45.905 v -0.02 l -23.69,-23.691 -0.1,-0.04 -106.53,-106.535 v 0 l -0.12,-0.121 -23.61,-23.614 -38.23,-38.225 v 0 l -65.94,-65.94 c -3.31,-3.316 -7.76,-5.117 -12.33,-5.127 z m 191.21,50.268 c -29.26,-0.875 -58.59,3.044 -87.4,11.756 l 34.45,34.415 c 13.63,-6.059 28.73,-9.426 44.61,-9.426 60.71,0 109.92,49.21 109.92,109.921 0,15.841 -3.35,30.899 -9.38,44.505 l 55,54.94 v 0 0 0 0 c 35.83,-22.869 68.94,-53.397 98.41,-90.201 4.41,-5.49 4.42,-13.081 0,-18.602 -70.65,-88.911 -157.86,-134.679 -245.65,-137.304 z m -8.34,69.854 c -6.42,0 -12.66,0.788 -18.62,2.272 l 22.12,22.102 c 0.83,-9.276 5.65,-17.404 12.73,-22.653 -5.24,-1.12 -10.66,-1.721 -16.23,-1.721 z m -90.56,14.475 23.99,23.989 c -6.52,11.285 -10.24,24.381 -10.24,38.348 0,42.421 34.39,76.81 76.81,76.81 13.96,0 27.06,-3.728 38.34,-10.243 l 23.99,23.989 c -17.71,12.219 -39.18,19.375 -62.33,19.375 -60.71,0 -109.93,-49.22 -109.93,-109.931 0,-23.147 7.15,-44.623 19.37,-62.337 z m 155.98,22.077 c -3.71,12.088 -14.45,21.091 -27.44,22.26 l 36.58,36.541 c 1.47,-5.938 2.25,-12.148 2.25,-18.541 0,-14.76 -4.17,-28.549 -11.39,-40.259 -3.98,12.97 -16.05,22.388 -30.32,22.388 -17.52,0 -31.72,-14.198 -31.72,-31.718 0,-10.45 5.05,-19.72 12.85,-25.5 -5.24,-1.12 -10.66,-1.721 -16.23,-1.721 z" />
</svg>
