<?xml version="1.0" encoding="UTF-8" standalone="no"?>
<svg
   xml:space="preserve"
   version="1.1"
   style="image-rendering:optimizeQuality;shape-rendering:geometricPrecision;text-rendering:geometricPrecision"
   viewBox="-295146 2065 600 600"
   x="0px"
   y="0px"
   fill-rule="evenodd"
   clip-rule="evenodd"
   id="svg3"
   width="600"
   height="600"
   xmlns="http://www.w3.org/2000/svg"
   xmlns:svg="http://www.w3.org/2000/svg">
   <path
      id="path1"
      style="fill:#00cc00;fill-opacity:1;stroke:none"
      d="m -294845.77,2218.7234 c -90.48,0 -181.07,45.8069 -254.31,137.4219 -4.4,5.51 -4.4,13.1209 0,18.6309 68.76,85.83 157.31,137.5195 253.96,137.5195 96.66,0 185.22,-51.6988 253.97,-137.5488 4.41,-5.49 4.42,-13.0816 0,-18.6016 -72.81,-91.615 -163.18,-137.4219 -253.67,-137.4219 z m -0.33,36.8633 c 60.71,0 109.92,49.2099 109.92,109.9199 0,60.71 -49.21,109.9297 -109.92,109.9297 -60.71,0 -109.93,-49.2197 -109.93,-109.9297 0,-60.71 49.22,-109.9199 109.93,-109.9199 z m 0,33.1094 c -42.42,0 -76.81,34.3905 -76.81,76.8105 0,42.42 34.39,76.8086 76.81,76.8086 42.42,0 76.81,-34.3886 76.81,-76.8086 0,-14.76 -4.17,-28.5497 -11.39,-40.2597 -3.98,12.97 -16.05,22.3886 -30.32,22.3886 -17.52,0 -31.72,-14.1987 -31.72,-31.7187 0,-10.45 5.05,-19.72 12.85,-25.5 -5.24,-1.12 -10.66,-1.7207 -16.23,-1.7207 z" />
</svg>
