<?xml version="1.0" encoding="UTF-8" standalone="no"?>
<!-- Created with Inkscape (http://www.inkscape.org/) -->

<svg
   width="79.375mm"
   height="79.375mm"
   viewBox="0 0 79.375 79.375"
   version="1.1"
   id="svg1"
   xml:space="preserve"
   xmlns:inkscape="http://www.inkscape.org/namespaces/inkscape"
   xmlns:sodipodi="http://sodipodi.sourceforge.net/DTD/sodipodi-0.dtd"
   xmlns="http://www.w3.org/2000/svg"
   xmlns:svg="http://www.w3.org/2000/svg"><sodipodi:namedview
     id="namedview1"
     pagecolor="#505050"
     bordercolor="#eeeeee"
     borderopacity="1"
     inkscape:showpageshadow="0"
     inkscape:pageopacity="0"
     inkscape:pagecheckerboard="0"
     inkscape:deskcolor="#505050"
     inkscape:document-units="mm"><inkscape:page
       x="0"
       y="0"
       width="79.375"
       height="79.375"
       id="page2"
       margin="0"
       bleed="0" /></sodipodi:namedview><defs
     id="defs1" /><g
     inkscape:label="Camada 1"
     inkscape:groupmode="layer"
     id="layer1"><path
       d="m 33.247898,2.4492082 -1.57626,5.3691888 c -0.31007,0.9715498 -1.06979,1.7311996 -2.03628,2.0515996 -0.645999,0.2375004 -1.400549,0.5167494 -2.289489,0.8991494 -0.9251,0.4495 -2.01035,0.4495 -2.935549,0 L 19.330161,7.937347 c -1.02329,-0.5477999 -2.26874,-0.4754999 -3.21458,0.1965 -2.863169,2.123949 -5.431698,4.614749 -7.6383779,7.410438 -0.7080298,0.93015 -0.7855498,2.20145 -0.1964199,3.2143 l 2.8423998,4.867939 c 0.501309,0.868149 0.537479,1.932649 0.093,2.831799 -0.39793,0.78035 -0.71319,1.51925 -1.00778,2.263399 h 0.005 c -0.3565802,0.93535 -1.13699,1.64849 -2.1033498,1.91714 l -5.5970788,1.51925 c -1.1266397,0.2895 -1.97422952,1.219549 -2.14476948,2.371999 -0.49093989,3.462349 -0.49093989,6.981389 0,10.448888 0.14985997,1.17304 1.01810978,2.123939 2.17056948,2.382339 l 5.5453388,1.5192 c 0.9819398,0.2635 1.7778896,0.98185 2.1396098,1.93265 0.27907,0.728649 0.59433,1.457349 0.96643,2.237599 0.423789,0.87335 0.397939,1.90169 -0.0775,2.749139 l -2.8423998,4.919649 h -0.005 c -0.5994899,1.0077 -0.5116399,2.28414 0.2118699,3.20399 2.2119799,2.775049 4.7805089,5.250348 7.6383879,7.353538 0.9406,0.6976 2.20682,0.76995 3.22489,0.186 l 5.028569,-2.738789 c 0.925089,-0.4705 2.015499,-0.496 2.961339,-0.0775 0.78038,0.3565 1.51937,0.645949 2.299819,0.924999 h 0.005 c 0.95611,0.32049 1.71068,1.07484 2.02583,2.03609 l 1.56078,5.369199 v 0.005 c 0.27907,1.14719 1.245509,1.999839 2.418629,2.139389 1.34883,0.1655 2.70295,0.248 4.062099,0.2535 1.32819,-0.03 2.65122,-0.1345 3.969089,-0.3155 1.16798,-0.129 2.13961,-0.966349 2.43411,-2.103139 l 1.576259,-5.394999 v -0.005 c 0.29973,-0.95605 1.03362,-1.71054 1.98454,-2.03609 0.82173,-0.2895 1.56079,-0.583949 2.31532,-0.924999 0.950919,-0.434 2.046579,-0.408 2.976809,0.062 l 5.080169,2.780239 c 1.00778,0.59425 2.274029,0.5374 3.224889,-0.1445 2.868329,-2.123939 5.442019,-4.609589 7.664308,-7.394838 0.7132,-0.925 0.79073,-2.19629 0.19642,-3.20399 L 68.28198,55.733276 c -0.47544,-0.842349 -0.50647,-1.865589 -0.0827,-2.738839 0.37208,-0.7958 0.68735,-1.51925 0.95092,-2.222099 h 0.005 c 0.35659,-0.956 1.152489,-1.6846 2.139609,-1.9586 l 5.519539,-1.5089 v 0.005 c 1.14735,-0.2375 2.02583,-1.167849 2.19649,-2.330539 0.485549,-3.477849 0.485549,-7.002189 0,-10.480038 -0.17551,-1.15235 -1.02328,-2.092849 -2.16023,-2.377149 l -5.597069,-1.5192 0.005,-0.005 c -0.966439,-0.2685 -1.751959,-0.97664 -2.103369,-1.91714 -0.28942,-0.738949 -0.60983,-1.483099 -0.99226,-2.237599 -0.42894,-0.88365 -0.39794,-1.91715 0.0775,-2.775049 l 2.842399,-4.883439 c 0.5995,-1.00765 0.51681,-2.2738 -0.19641,-3.1988 C 68.67958,12.779846 66.10589,10.289096 63.237701,8.1651469 62.307451,7.4984971 61.082612,7.4106471 60.064542,7.937647 l -5.054379,2.764649 c -0.93542,0.4495 -2.02583,0.4495 -2.966489,0 -0.87342,-0.3825 -1.62799,-0.661449 -2.27403,-0.8991994 -0.96126,-0.3149999 -1.71584,-1.0644998 -2.03628,-2.0256496 L 46.172595,2.4186082 C 45.883165,1.2765585 44.921915,0.42905866 43.748805,0.28950869 42.405126,0.12950872 41.056166,0.03100874 39.702176,8.7499981e-6 38.379147,8.7499981e-6 37.056117,0.17050871 35.733097,0.34600867 34.544417,0.45950865 33.557368,1.2968585 33.247248,2.4491582 Z m 6.454928,19.3119258 c 7.250879,0 13.788627,4.366689 16.564337,11.069078 2.775329,6.697288 1.240349,14.407876 -3.8864,19.534175 -5.126738,5.126289 -12.837487,6.661139 -19.535855,3.886039 C 26.141899,53.475387 21.77485,46.938338 21.77485,39.68755 21.78535,29.791522 29.806038,21.771334 39.703226,21.760734 Z"
       id="path1"
       style="fill:#00cc00;fill-opacity:1;stroke:none;stroke-width:0.264583" /></g></svg>
