<?xml version="1.0" encoding="UTF-8" standalone="no"?>
<!-- Created with Inkscape (http://www.inkscape.org/) -->

<svg
   width="264.58307mm"
   height="102.02909mm"
   viewBox="0 0 264.58307 102.02909"
   version="1.1"
   id="svg1"
   xml:space="preserve"
   xmlns="http://www.w3.org/2000/svg"
   xmlns:svg="http://www.w3.org/2000/svg"><defs
     id="defs1"><style
       id="style1">.cls-1{fill:#000000;}</style></defs><g
     id="layer1"
     transform="translate(-388.27262,-16.688653)"><path
       id="path1-2"
       style="fill:#00cc00;fill-opacity:1;stroke:none;stroke-width:0.352778"
       d="m 421.73947,16.739206 c -29.34854,1.550135 -32.94685,38.059379 -33.37845,48.288515 -1.03531,24.538075 6.91469,50.956739 29.65159,53.376479 21.53865,2.28796 32.37011,-8.51297 46.68032,-13.99873 18.71883,-7.152917 25.98081,3.62952 33.58221,1.36812 9.73386,-2.88811 -0.41029,-24.448443 9.12379,-28.813962 l 0.003,0.0015 101.21005,-1.991613 -0.0241,-10.616767 -88.65984,-1.271429 c 0.0382,-0.670774 0.078,-1.310658 0.12003,-1.888623 0.53981,-17.927866 -7.02631,-28.571158 -17.59482,-29.886454 -10.56851,-1.315281 -15.38725,1.273 -19.67906,1.840835 -27.04585,3.073237 -32.94906,-13.985248 -54.81498,-16.233371 -2.19216,-0.225555 -4.26316,-0.277465 -6.21973,-0.174118 z m 9.01118,33.865605 h 6.34234 v 39.0347 h -6.34234 z m 212.21592,4.114378 -3.80615,0.01185 c -0.31833,-0.0022 -0.62279,0.132554 -0.82317,0.37639 -0.18278,0.196858 -0.28194,0.45405 -0.27599,0.720555 0.003,0.04409 0.002,0.09345 0.006,0.13707 l 0.55014,4.35481 -4.60005,0.110767 0.53199,-4.458537 c 0.0468,-0.313002 -0.0589,-0.621058 -0.27229,-0.854657 -0.20902,-0.239385 -0.5063,-0.37396 -0.8191,-0.374913 l -3.81763,0.01037 c -0.31611,0.0029 -0.61267,0.137185 -0.82169,0.382691 -0.17885,0.193848 -0.27328,0.457249 -0.26933,0.722778 -0.002,0.04273 0.002,0.08505 0.008,0.138554 l 0.56792,4.551152 -4.76454,0.111132 0.55867,-4.654141 c 0.0471,-0.325662 -0.064,-0.631115 -0.26786,-0.862069 -0.21056,-0.238194 -0.51157,-0.373457 -0.82353,-0.370088 l -3.81689,0.007 c -0.31492,0.0043 -0.61409,0.138783 -0.81762,0.380103 -0.18161,0.1984 -0.27884,0.45818 -0.27525,0.726477 1.7e-4,0.04094 0.003,0.08585 0.009,0.13522 l 0.63312,5.055722 c 0.0104,0.08031 0.043,0.147522 0.0682,0.217835 l -8.38806,2.825528 0.033,11.117258 8.60366,3.561277 c -0.13747,0.158534 -0.23987,0.347463 -0.26673,0.569398 l -0.60719,5.065362 c -0.007,0.04766 -0.006,0.09324 -0.008,0.133372 -2.4e-4,0.267722 0.0977,0.519818 0.2797,0.723882 0.20367,0.237265 0.50465,0.372472 0.82021,0.373798 l 3.81652,-0.01481 c 0.31319,0.0039 0.61327,-0.135908 0.81725,-0.370104 0.20846,-0.241376 0.31227,-0.543403 0.26673,-0.861688 l -0.6372,-5.061654 c -0.003,-0.01663 -0.0133,-0.03076 -0.0156,-0.04516 1.3509,0.04323 3.00287,0.09886 4.87864,0.153745 l -0.58941,4.94274 c -0.005,0.04573 -0.009,0.08836 -0.01,0.132623 0.003,0.26257 0.0963,0.524577 0.2797,0.723889 0.20823,0.239988 0.50286,0.370112 0.82021,0.373791 l 3.81763,-0.01365 c 0.31141,5.32e-4 0.60944,-0.132823 0.81613,-0.37157 0.20873,-0.23779 0.31512,-0.540094 0.26303,-0.862073 l -0.59719,-4.786769 c 1.52656,0.04208 3.09692,0.08423 4.67748,0.122251 l -0.55791,4.653775 c -0.005,0.0509 -0.0113,0.09258 -0.008,0.137443 0.002,0.26021 0.10154,0.520844 0.27822,0.722771 0.20901,0.239402 0.50992,0.371077 0.82428,0.370837 l 3.81653,-0.0077 c 0.31311,-0.0062 0.62014,-0.14022 0.82131,-0.379722 0.21206,-0.236641 0.31356,-0.541753 0.26562,-0.863176 l -0.56644,-4.537451 c 2.05429,0.03792 4.04788,0.06474 5.84963,0.07928 7.26456,-8.965674 0.74352,-19.863183 0.74352,-19.863183 l -6.61204,0.157079 0.51087,-4.246631 c 0.0477,-0.31992 -0.0615,-0.627016 -0.27414,-0.859847 -0.20524,-0.236073 -0.50836,-0.372634 -0.82428,-0.3712 z m -168.73085,0.07965 c 7.12667,2.1e-5 12.90398,5.777331 12.90401,12.904003 -2e-5,7.126679 -5.77733,12.903991 -12.90401,12.904012 -7.12682,1.79e-4 -12.90435,-5.77719 -12.90438,-12.904012 3e-5,-7.126815 5.77757,-12.904182 12.90438,-12.904003 z m 166.84704,7.916078 c 0.60527,-0.0022 1.14284,0.27059 1.49853,0.700173 0.27664,0.334129 0.44312,0.762996 0.44529,1.230688 0.003,1.066764 -0.85693,1.93758 -1.93529,1.943452 -1.06852,0.0057 -1.93526,-0.864823 -1.93568,-1.936046 -0.003,-1.06814 0.85921,-1.93664 1.92715,-1.938267 z m -9.51351,0.02779 c 0.60526,-0.0022 1.14579,0.26991 1.50333,0.698325 0.2781,0.333211 0.44552,0.760709 0.44716,1.227713 -0.002,1.07252 -0.86389,1.939515 -1.93715,1.939014 -1.07248,0.0043 -1.94206,-0.857196 -1.94495,-1.926784 -0.004,-1.070312 0.85944,-1.937128 1.93161,-1.938268 z m -9.62874,0.02038 c 0.60495,-2.01e-4 1.14352,0.273064 1.49964,0.702396 0.27699,0.333914 0.44387,0.762235 0.44604,1.229943 0.004,1.070147 -0.86065,1.941451 -1.93827,1.943458 -1.06257,-5e-5 -1.9362,-0.863762 -1.9379,-1.931601 -0.004,-1.070312 0.86003,-1.944368 1.93049,-1.944196 z m 19.17151,10.298159 c 0.60426,-0.0035 1.14397,0.270597 1.50076,0.701292 0.27749,0.334982 0.44436,0.764536 0.44455,1.231054 -0.002,1.07252 -0.86299,1.94617 -1.93974,1.944563 -1.06459,0.0029 -1.93114,-0.859361 -1.93346,-1.933078 -0.002,-1.067962 0.85693,-1.941114 1.92789,-1.943831 z m -9.51166,0.02557 c 0.60137,-0.0029 1.14148,0.27186 1.4989,0.702031 0.278,0.334574 0.44564,0.76301 0.4453,1.228831 0.005,1.072478 -0.85815,1.944908 -1.9342,1.949009 -1.07155,-0.0029 -1.93992,-0.863369 -1.93975,-1.933825 -0.006,-1.070685 0.86049,-1.944648 1.92975,-1.946046 z m -9.62873,0.02815 c 0.60513,-0.0043 1.14316,0.268347 1.49927,0.698697 0.27696,0.334717 0.44401,0.76473 0.44604,1.233649 0.002,1.067359 -0.86392,1.943073 -1.93642,1.941976 -1.06851,0.0057 -1.94082,-0.860566 -1.94308,-1.934198 -4.2e-4,-1.066384 0.86097,-1.940662 1.93419,-1.940124 z m -169.16948,3.407905 a 11.380658,11.380658 0 0 1 1.70598,0.128554 l 0.002,-0.0074 c 5.4e-4,0.0022 0.002,0.005 0.005,0.0082 a 11.380658,11.380658 0 0 1 7.91237,5.176493 c 0.42092,0.490087 1.01171,1.060329 1.75822,1.493706 5.91005,2.651529 13.89585,3.958248 22.12856,-1.385902 0.087,-0.05638 0.24096,-0.105722 0.34454,-0.110025 0.23266,-0.0091 0.38062,-3.47e-4 0.63498,0.183748 0.3162,0.228852 0.34156,1.121058 -0.63276,2.668821 0,0 -8.41954,17.659654 -35.16408,14.529981 l 3.7e-4,-0.0023 a 11.380658,11.380658 0 0 1 -10.07524,-11.30329 11.380658,11.380658 0 0 1 11.38066,-11.380655 z" /></g></svg>
