<?xml version="1.0" encoding="UTF-8" standalone="no"?>
<svg
   width="67.044357mm"
   height="79.375031mm"
   viewBox="0 0 67.044356 79.375033"
   version="1.1"
   id="svg1"
   sodipodi:docname="playlist.svg"
   xmlns:inkscape="http://www.inkscape.org/namespaces/inkscape"
   xmlns:sodipodi="http://sodipodi.sourceforge.net/DTD/sodipodi-0.dtd"
   xmlns="http://www.w3.org/2000/svg"
   xmlns:svg="http://www.w3.org/2000/svg">
  <defs
     id="defs1" />
  <sodipodi:namedview
     id="namedview1"
     pagecolor="#505050"
     bordercolor="#eeeeee"
     borderopacity="1"
     inkscape:showpageshadow="0"
     inkscape:pageopacity="0"
     inkscape:pagecheckerboard="0"
     inkscape:deskcolor="#505050"
     inkscape:document-units="mm">
    <inkscape:page
       x="0"
       y="0"
       width="67.044357"
       height="79.375031"
       id="page2"
       margin="0"
       bleed="0" />
  </sodipodi:namedview>
  <path
     id="path210"
     style="fill:#00cc00;fill-opacity:1;stroke:none;stroke-width:9.99998;stroke-linecap:round;paint-order:stroke fill markers"
     d="M 58.62502,6.6952636e-5 V 0.00216695 c -1.456704,-0.01691 -2.916468,0.344007 -4.240936,1.08301795 -9.709392,5.406003 -21.534419,12.1003751 -29.554403,16.2334661 -3.324015,1.71267 -5.402704,5.11726 -5.402704,8.854565 V 51.467807 C 17.819785,50.870397 16.11918,50.564474 14.404517,50.564933 6.4495603,50.565445 4.8125444e-4,57.014471 1.2544455e-6,64.969439 -5.3074556e-4,72.925133 6.4488503,79.374513 14.404517,79.375023 c 7.956419,5.5e-4 14.406134,-6.44916 14.405592,-14.405584 -1.47e-4,-0.06878 -4.18e-4,-0.137436 -0.0021,-0.206571 l 0.0021,-37.04549 c -5.95e-4,-0.94887 0.510928,-1.82418 1.338132,-2.289008 L 56.32306,10.74177 c 0.600005,-0.337255 1.341375,0.09707 1.340293,0.7853 v 27.892663 c -1.607704,-0.598246 -3.30975,-0.904617 -5.025156,-0.904502 -7.95504,4.38e-4 -14.40354,6.448932 -14.403971,14.403973 -4.21e-4,7.955636 6.44833,14.405143 14.403971,14.405592 7.879912,-0.0063 14.29285,-6.341848 14.393185,-14.221126 l 0.01078,0.01399 v -0.170987 c 6.72e-4,-0.01044 0.0011,-0.01889 0.0022,-0.0286 -2.3e-4,-0.06523 -0.001,-0.13059 -0.0022,-0.19579 v -0.0021 l 0.0022,-44.1946181 c 1.4e-4,-3.034802 -1.591908,-5.815524 -4.205877,-7.350846 C 61.531877,0.40725695 60.082291,0.01800395 58.625596,-5.0460847e-8 Z"
     sodipodi:nodetypes="ccccsccccccccccccsccccccccscc" />
</svg>
