<?xml version="1.0" encoding="UTF-8" standalone="no"?>
<svg
   version="1.1"
   viewBox="-5 -10 300 300"
   id="svg2"
   xmlns="http://www.w3.org/2000/svg"
   xmlns:svg="http://www.w3.org/2000/svg">
  <defs
     id="defs2" />
  <path
     d="M 145,290 C 62.33,290 -5,222.67 -5,140 -5,57.329999 62.33,-10 145,-10 c 82.67,0 150,67.329999 150,150 0,82.67 -67.33,150 -150,150 z m 0,-76.66667 z m 0,-166.666664 c -9.336,0 -16.66667,7.330666 -16.66667,16.666666 V 150 c 0,9.336 7.33067,16.66666 16.66667,16.66666 9.336,0 16.66666,-7.33066 16.66666,-16.66666 V 63.333332 c 0,-9.336 -7.33066,-16.666666 -16.66666,-16.666666 z m 0,139.999994 c -11.00267,0 -20,8.99734 -20,20 0,11.00267 8.99733,20 20,20 11.00266,0 20,-8.99733 20,-20 0,-11.00266 -8.99734,-20 -20,-20 z"
     id="path1"
     style="fill:#00cc00;fill-opacity:1;stroke:none;stroke-width:1" />
</svg>
