<?xml version="1.0" encoding="UTF-8" standalone="no"?>
<svg
   version="1.1"
   viewBox="-5 -10 297.92001 264.56693"
   id="svg2"
   xml:space="preserve"
   xmlns:xlink="http://www.w3.org/1999/xlink"
   xmlns="http://www.w3.org/2000/svg"
   xmlns:svg="http://www.w3.org/2000/svg"><defs
     id="defs2" /><path
     id="path1-0"
     style="fill:#00cc00;fill-opacity:1;stroke:none;stroke-width:0.999998"
     d="M 50.572943,-10 C 19.936787,-10 -4.9898707,14.937108 -5,45.563242 V 151.77094 c 0,26.36128 18.463443,48.50715 43.118874,54.16675 v 33.57612 c 0,5.65961 3.171527,10.82742 8.188917,13.4064 2.177547,1.10386 4.53612,1.64672 6.864186,1.64672 3.120811,0 6.190847,-0.95299 8.799891,-2.83956 l 61.603102,-44.39512 h 113.78178 c 30.63617,0 55.56324,-24.91516 55.56324,-55.56131 V 45.563242 C 292.91999,14.92708 267.99292,-10 237.35675,-10 Z M 143.96,29.152428 c 38.31185,0 69.51466,31.202808 69.51466,69.51466 0,38.311852 -31.20281,69.514672 -69.51466,69.514672 -38.31185,0 -69.514669,-31.20282 -69.514669,-69.514672 0,-38.311852 31.202819,-69.51466 69.514669,-69.51466 z m 0,26.260018 c -4.32659,0 -7.72342,3.398767 -7.72343,7.72536 v 40.162954 c 0,4.32658 3.39684,7.72342 7.72343,7.72342 4.3266,0 7.72341,-3.39684 7.72341,-7.72342 V 63.137806 c 0,-4.326593 -3.39681,-7.72536 -7.72341,-7.72536 z m 0,64.881004 c -5.09897,0 -9.26928,4.17029 -9.26928,9.26927 0,5.09897 4.17031,9.26732 9.26928,9.26732 5.09898,0 9.26732,-4.16835 9.26732,-9.26732 0,-5.09898 -4.16834,-9.26927 -9.26732,-9.26927 z" /></svg>
