<?xml version="1.0" encoding="UTF-8" standalone="no"?>
<svg
   width="132.29166mm"
   height="132.29166mm"
   viewBox="0 0 132.29166 132.29166"
   version="1.1"
   id="svg1"
   xml:space="preserve"
   xmlns:xlink="http://www.w3.org/1999/xlink"
   xmlns="http://www.w3.org/2000/svg"
   xmlns:svg="http://www.w3.org/2000/svg">
  <defs id="defs1"></defs>
  <path
     d="M 66.145767,4.1236359e-6 C 29.615491,4.1236359e-6 -3.6354743e-6,29.614633 -3.6354743e-6,66.145838 -3.6354743e-6,102.67857 29.615491,132.29168 66.145767,132.29168 c 36.534233,0 66.145893,-29.61311 66.145893,-66.145842 0,-36.528842 -29.6125,-66.14257788 -66.147487,-66.14257788 z M 56.07856,34.986521 c 19.240876,-0.05125 40.165177,3.90116 55.50527,13.008014 2.94234,1.74062 3.91354,5.54005 2.16559,8.478113 -1.73774,2.93997 -5.54617,3.90959 -8.47657,2.16399 h -0.003 C 83.951405,45.974075 48.779272,44.809245 28.425322,50.986845 c -3.268387,0.99137 -6.725425,-0.85422 -7.7159,-4.12281 -0.991756,-3.26992 0.854794,-6.724535 4.124394,-7.717504 8.761781,-2.659997 19.700374,-4.13021 31.244875,-4.16001 z m 1.177281,22.795767 c 16.408438,0.35738 32.859314,4.67657 45.620529,12.51865 2.42444,1.49255 3.19065,4.66942 1.69881,7.09099 -1.49306,2.42559 -4.668073,3.19155 -7.092573,1.69881 -17.779796,-10.92877 -44.883097,-14.09327 -65.913154,-7.7094 -2.72745,0.82385 -5.607562,-0.71382 -6.435362,-3.43649 -0.822381,-2.72548 0.7165,-5.60252 3.439744,-6.43211 9.008243,-2.7334 18.836894,-3.94501 28.682006,-3.73045 z m 0.414812,21.56526 c 14.015845,0.25719 26.543996,3.72241 37.441104,10.3821 1.94312,1.19279 2.5605,3.7284 1.36778,5.67152 -1.18723,1.94548 -3.728457,2.55903 -5.671445,1.36778 -15.530212,-9.48646 -35.080807,-11.63622 -58.105283,-6.37557 -2.219956,0.50481 -4.430024,-0.8841 -4.936624,-3.10381 -0.509938,-2.22009 0.879368,-4.43213 3.100543,-4.93669 9.448725,-2.15876 18.394369,-3.15965 26.803925,-3.00533 z"
     style="fill:#00cc00;fill-opacity:1;stroke-width:0.446588"
     id="path1-1" />
</svg>