<?xml version="1.0" encoding="UTF-8" standalone="no"?>
<svg
   viewBox="-18486 -270 300 300"
   version="1.1"
   id="svg1"
   xml:space="preserve"
   sodipodi:docname="spotify.svg"
   xmlns:inkscape="http://www.inkscape.org/namespaces/inkscape"
   xmlns:sodipodi="http://sodipodi.sourceforge.net/DTD/sodipodi-0.dtd"
   xmlns="http://www.w3.org/2000/svg"
   xmlns:svg="http://www.w3.org/2000/svg"><sodipodi:namedview
   id="namedview1"
   pagecolor="#505050"
   bordercolor="#eeeeee"
   borderopacity="1"
   inkscape:showpageshadow="0"
   inkscape:pageopacity="0"
   inkscape:pagecheckerboard="0"
   inkscape:deskcolor="#505050"><inkscape:page
     x="0"
     y="0"
     width="39687.492"
     height="39687.5"
     id="page2"
     margin="0"
     bleed="0" /></sodipodi:namedview>
  <defs
   id="defs1" />
  <path
   d="m -18336.081,-270.85887 c -82.84,0 -150,67.15758 -150,150 0,82.845872 67.16,150.000012 150,150.000012 82.849,0 150,-67.15414 150,-150.000012 0,-82.83706 -67.152,-149.99261 -150.003,-149.99261 z m -22.829,79.3395 c 43.632,-0.11622 91.083,8.84673 125.87,29.49849 6.672,3.94723 8.875,12.56326 4.911,19.22595 -3.941,6.66702 -12.577,8.86585 -19.223,4.90732 v 0 c -48.344,-28.7151 -128.104,-31.35661 -174.261,-17.34756 -7.412,2.24815 -15.251,-1.93713 -17.498,-9.34936 -2.249,-7.41526 1.939,-15.24934 9.353,-17.50112 19.87,-6.03211 44.675,-9.36614 70.855,-9.43372 z m 2.669,51.69434 c 37.21,0.81043 74.516,10.60513 103.455,28.38874 5.498,3.38468 7.235,10.58893 3.852,16.080362 -3.386,5.50055 -10.586,7.23753 -16.084,3.85242 -40.319,-24.783352 -101.782,-31.959542 -149.472,-17.482732 -6.185,1.86825 -12.716,-1.61875 -14.594,-7.79299 -1.865,-6.18061 1.625,-12.70493 7.801,-14.5862 20.428,-6.19858 42.716,-8.94616 65.042,-8.4596 z m 0.941,48.903892 c 31.784,0.58323 60.194,8.44137 84.906,23.54366 4.406,2.70491 5.806,8.45495 3.102,12.8614 -2.693,4.41179 -8.456,5.80315 -12.862,3.10174 -35.218,-21.51261 -79.553,-26.38765 -131.766,-14.45799 -5.034,1.14477 -10.046,-2.00489 -11.195,-7.03856 -1.156,-5.03453 1.994,-10.05081 7.031,-11.19501 21.427,-4.89546 41.714,-7.16519 60.784,-6.81524 z"
   style="fill:#00cc00;fill-opacity:1;stroke-width:0.446588"
   id="path1-1" />
</svg>
