<?xml version="1.0" encoding="UTF-8" standalone="no"?>
<!-- Created with Inkscape (http://www.inkscape.org/) -->

<svg
   width="110.00001mm"
   height="34.999931mm"
   viewBox="0 0 110.00001 34.999931"
   version="1.1"
   id="svg1"
   xml:space="preserve"
   xmlns:inkscape="http://www.inkscape.org/namespaces/inkscape"
   xmlns:sodipodi="http://sodipodi.sourceforge.net/DTD/sodipodi-0.dtd"
   xmlns="http://www.w3.org/2000/svg"
   xmlns:svg="http://www.w3.org/2000/svg"><sodipodi:namedview
     id="namedview1"
     pagecolor="#505050"
     bordercolor="#eeeeee"
     borderopacity="1"
     inkscape:showpageshadow="0"
     inkscape:pageopacity="0"
     inkscape:pagecheckerboard="0"
     inkscape:deskcolor="#505050"
     inkscape:document-units="mm"
     showguides="true"><inkscape:page
       x="2.4190215e-20"
       y="0"
       width="110"
       height="34.999931"
       id="page2"
       margin="0"
       bleed="0" /></sodipodi:namedview><defs
     id="defs1"><style
       id="style1">.cls-1{fill:#000000;}</style></defs><g
     inkscape:label="Camada 1"
     inkscape:groupmode="layer"
     id="layer1"
     transform="translate(-41.304454,-135.1721)"><g
       id="g20"><path
         id="rect14"
         style="baseline-shift:baseline;display:inline;overflow:visible;opacity:1;vector-effect:none;fill:#00cc00;stroke:none;stroke-width:0.999997;stroke-linecap:round;enable-background:accumulate;stop-color:#000000;stop-opacity:1"
         d="m 58.530794,135.17211 c -9.538919,0 -17.226338,7.80904 -17.226338,17.49971 0,9.69068 7.687419,17.50022 17.226338,17.50022 h 75.547846 c 9.53891,0 17.22582,-7.80954 17.22582,-17.50022 0,-9.69067 -7.68691,-17.49971 -17.22582,-17.49971 z m 0,0.49971 h 75.547846 c 9.27476,0 16.73386,7.57768 16.73386,17 0,9.42233 -7.4591,16.99999 -16.73386,16.99999 H 58.530794 c -9.27477,0 -16.733861,-7.57766 -16.733862,-16.99999 0,-9.42232 7.459092,-17 16.733862,-17 z m 37.773922,4.36614 a 0.24999949,0.24999949 0 0 0 -0.250114,0.25012 v 24.76748 a 0.24999949,0.24999949 0 0 0 0.250114,0.25011 0.24999949,0.24999949 0 0 0 0.250114,-0.25011 v -24.76748 a 0.24999949,0.24999949 0 0 0 -0.250114,-0.25012 z"
         inkscape:label="retangle" /><path
         d="m 123.55659,163.66696 c -0.67828,-0.0469 -1.28886,-0.42799 -1.62914,-1.01663 l -10.35216,-17.91122 c -0.78767,-1.36284 0.1958,-3.06722 1.7699,-3.06725 h 20.67415 c 1.5751,3e-5 2.55998,1.70456 1.77338,3.06918 l -10.32316,17.90698 c -0.39042,0.67743 -1.13296,1.07295 -1.91297,1.01894 z"
         style="fill:#f7f7f7;fill-opacity:1;stroke:none;stroke-width:1.2"
         id="path1-8"
         inkscape:label="down" /><path
         d="m 68.79877,141.67677 c -0.678281,0.0469 -1.288863,0.42798 -1.629137,1.01662 l -10.352158,17.91122 c -0.787677,1.36284 0.195797,3.06723 1.769894,3.06725 h 20.674154 c 1.57509,-2e-5 2.559976,-1.70456 1.773374,-3.06918 L 70.711742,142.6957 c -0.390423,-0.67743 -1.132957,-1.07294 -1.912972,-1.01893 z"
         style="fill:#f7f7f7;fill-opacity:1;stroke:none;stroke-width:1.2"
         id="path1"
         inkscape:label="up" /></g></g></svg>
