<?xml version="1.0" encoding="UTF-8" standalone="no"?>
<!-- Created with Inkscape (http://www.inkscape.org/) -->

<svg
   width="68.791664mm"
   height="79.375mm"
   viewBox="0 0 68.791663 79.374999"
   version="1.1"
   id="svg1"
   inkscape:export-filename="calendar_logo.svg"
   inkscape:export-xdpi="96"
   inkscape:export-ydpi="96"
   xml:space="preserve"
   xmlns:inkscape="http://www.inkscape.org/namespaces/inkscape"
   xmlns:sodipodi="http://sodipodi.sourceforge.net/DTD/sodipodi-0.dtd"
   xmlns="http://www.w3.org/2000/svg"
   xmlns:svg="http://www.w3.org/2000/svg"><sodipodi:namedview
     id="namedview1"
     pagecolor="#505050"
     bordercolor="#eeeeee"
     borderopacity="1"
     inkscape:showpageshadow="0"
     inkscape:pageopacity="0"
     inkscape:pagecheckerboard="0"
     inkscape:deskcolor="#505050"
     inkscape:document-units="mm"><inkscape:page
       x="0"
       y="0"
       width="68.791664"
       height="79.375"
       id="page2"
       margin="0"
       bleed="0" /></sodipodi:namedview><defs
     id="defs1" /><g
     inkscape:label="Camada 1"
     inkscape:groupmode="layer"
     id="layer1"><path
       id="path1"
       style="fill:#00cc00;fill-opacity:1;stroke:none;stroke-width:0.264583"
       d="M 29.659947,0 C 23.345645,0 18.111098,5.17516 18.111098,11.60197 v 2.75339 H 6.812147 C 3.073417,14.35536 0,17.44452 0,21.20046 v 1.00092 c 0,1.25196 0.996345,2.25455 2.242589,2.25455 h 64.30649 c 1.24624,0 2.24259,-1.00259 2.24259,-2.25455 v -0.91776 c 0,-3.83939 -2.99034,-6.92826 -6.81214,-6.92826 H 50.680569 V 11.60197 C 50.680569,5.2586 45.529109,0 39.131722,0 Z m 0,7.34558 h 9.471775 c 2.326322,0 4.236897,1.91934 4.236897,4.25639 v 2.75339 H 25.423043 v -2.75339 c 0,-2.33705 1.910581,-4.25639 4.236904,-4.25639 z M 6.64663,29.63012 10.052707,70.77906 c 0.415416,4.84097 4.485827,8.59594 9.304634,8.59594 h 29.994228 c 4.90189,0 8.88923,-3.75497 9.30464,-8.59594 l 3.40607,-41.14894 z m 42.289519,8.6807 c 1.82782,0.0836 3.23927,1.66865 3.15618,3.50487 l -1.41176,25.62478 c -0.0831,1.75278 -1.57857,3.1707 -3.32331,3.1707 h -0.16716 c -1.82782,-0.0836 -3.23925,-1.66868 -3.15618,-3.5049 l 1.41177,-25.62474 c 0.0831,-1.83623 1.66263,-3.25415 3.49045,-3.17071 z m -29.07901,0.083 c 1.827825,-0.0836 3.40575,1.33613 3.488832,3.17235 l 1.41176,25.62314 c 0.08309,1.83622 -1.328352,3.4214 -3.156178,3.50487 h -0.16715 c -1.74474,0 -3.240229,-1.33445 -3.323314,-3.17068 L 16.699328,41.89873 c -0.08309,-1.83622 1.329979,-3.42143 3.157801,-3.50491 z m 14.539507,0 c 1.827823,0 3.323315,1.50238 3.323315,3.33863 v 25.53998 c 0,1.83622 -1.495492,3.33863 -3.323315,3.33863 -1.827826,0 -3.323315,-1.50241 -3.323315,-3.33863 V 41.73245 c 0,-1.83625 1.495489,-3.33863 3.323315,-3.33863 z" /></g></svg>
