<?xml version="1.0" encoding="UTF-8" standalone="no"?>
<svg
   viewBox="-21381 281 300 300"
   version="1.1"
   id="svg1"
   xml:space="preserve"
   sodipodi:docname="spotify.svg"
   xmlns:inkscape="http://www.inkscape.org/namespaces/inkscape"
   xmlns:sodipodi="http://sodipodi.sourceforge.net/DTD/sodipodi-0.dtd"
   xmlns="http://www.w3.org/2000/svg"
   xmlns:svg="http://www.w3.org/2000/svg"><sodipodi:namedview
   id="namedview1"
   pagecolor="#505050"
   bordercolor="#eeeeee"
   borderopacity="1"
   inkscape:showpageshadow="0"
   inkscape:pageopacity="0"
   inkscape:pagecheckerboard="0"
   inkscape:deskcolor="#505050"><inkscape:page
     x="0"
     y="0"
     width="39687.484"
     height="39687.496"
     id="page2"
     margin="0"
     bleed="0" /></sodipodi:namedview>
  <defs
   id="defs1" />
  
<path
   d="m -21231.397,281.73389 c -82.8,0 -149.996,67.20013 -149.996,149.99999 0,82.80002 67.196,150.00001 149.996,150.00001 82.8,0 150.004,-67.19999 150.004,-150.00001 0,-82.79986 -67.204,-149.99999 -150.004,-149.99999 z m 0,57.68927 c 50.929,0 92.311,41.38198 92.311,92.31072 0,50.92919 -41.382,92.30713 -92.311,92.30713 -50.929,0 -92.307,-41.37794 -92.307,-92.30713 0,-50.92874 41.378,-92.31072 92.307,-92.31072 z m 0,11.54295 c -44.699,0 -80.768,36.06913 -80.768,80.76777 0,44.69924 36.069,80.76779 80.768,80.76779 44.699,0 80.771,-36.06855 80.771,-80.76779 0,-44.69878 -36.072,-80.76777 -80.771,-80.76777 z m -31.729,31.72856 86.54,49.03921 -86.54,49.03923 z"
   style="fill:#00cc00;fill-opacity:1;stroke-width:0.446588"
   id="path1-50" /></svg>
