<?xml version="1.0" encoding="UTF-8" standalone="no"?>
<svg
   width="132.29167mm"
   height="132.29166mm"
   viewBox="0 0 132.29167 132.29166"
   version="1.1"
   id="svg1"
   xmlns="http://www.w3.org/2000/svg">
  <path
     id="path210"
     style="fill:#00cc00;fill-opacity:1;stroke:none;stroke-width:9.99998;stroke-linecap:round;paint-order:stroke fill markers"
     d="M 66.145835,2.088636e-5 C 29.64287,2.088636e-5 -1.4148998e-7,29.642891 -1.4148998e-7,66.145851 -1.4148998e-7,102.64881 29.64287,132.29168 66.145835,132.29168 c 36.502955,0 66.145835,-29.64287 66.145835,-66.145829 0,-36.50296 -29.64288,-66.14583011364 -66.145835,-66.14583011364 z m 0,4.78885001364 c 33.914695,0 61.356985,27.4422901 61.356985,61.3569801 0,33.914689 -27.44229,61.356459 -61.356985,61.356459 -33.914695,0 -61.3564651,-27.44177 -61.3564651,-61.356459 0,-33.91469 27.4417701,-61.3569801 61.3564651,-61.3569801 z M 85.546201,28.120261 v 0.002 c -1.395695,-0.0162 -2.794321,0.3296 -4.063318,1.03766 -9.302746,5.17959 -20.63252,11.59359 -28.316613,15.55358 -3.1848,1.64094 -5.17643,4.90294 -5.17643,8.48372 v 24.23521 c -1.53988,-0.57239 -3.16926,-0.8655 -4.81211,-0.86506 -7.62179,4.9e-4 -13.80077,6.17942 -13.80123,13.80122 -5.1e-4,7.6225 6.17876,13.801769 13.80123,13.802259 7.62319,5.2e-4 13.80278,-6.179059 13.80226,-13.802259 -1.4e-4,-0.0659 -4e-4,-0.13168 -0.002,-0.19792 l 0.002,-35.49396 c -5.7e-4,-0.90913 0.48953,-1.74778 1.282089,-2.19314 l 25.078572,-14.0715 c 0.574876,-0.32313 1.285196,0.093 1.284159,0.75241 v 26.72447 c -1.54037,-0.57319 -3.171132,-0.86673 -4.814693,-0.86662 -7.621869,4.2e-4 -13.800295,6.17884 -13.800708,13.80071 -4.03e-4,7.62244 6.178263,13.80183 13.800708,13.80226 7.549887,-0.006 13.69424,-6.07624 13.790373,-13.62552 l 0.01033,0.0134 v -0.16381 c 6.44e-4,-0.01 0.0011,-0.0181 0.0021,-0.0274 -2.21e-4,-0.0625 -0.001,-0.12512 -0.0021,-0.18759 v -0.002 l 0.0021,-42.34367 c 1.34e-4,-2.9077 -1.525237,-5.57196 -4.029728,-7.04298 -1.251885,-0.73532 -2.64076,-1.10827 -4.036446,-1.12552 z" />
</svg>
