<?xml version="1.0" encoding="UTF-8" standalone="no"?>
<svg
   width="132.29166mm"
   height="132.29167mm"
   viewBox="0 0 132.29166 132.29167"
   version="1.1"
   id="svg1"
   xmlns="http://www.w3.org/2000/svg">
  <path
     id="path257-4"
     style="baseline-shift:baseline;display:inline;overflow:visible;vector-effect:none;fill:#00cc00;stroke:none;stroke-width:0.999995;stroke-linecap:round;paint-order:stroke fill markers;enable-background:accumulate;stop-color:#000000"
     d="M 66.145311,2.7278968e-6 C 29.64235,2.7278968e-6 -9.9513082e-6,29.643143 -9.9513082e-6,66.146353 -9.9513082e-6,102.64957 29.64235,132.29167 66.145311,132.29167 c 36.502959,0 66.146349,-29.6421 66.146349,-66.145317 C 132.29166,29.643143 102.64827,2.7278968e-6 66.145311,2.7278968e-6 Z m 0,4.7893699721032 c 33.914699,0 61.356979,27.4422901 61.356979,61.3569803 0,33.914937 -27.44228,61.355947 -61.356979,61.355947 -33.914691,0 -61.3564609,-27.44101 -61.3564609,-61.355947 0,-33.91492 27.4417699,-61.3569803 61.3564609,-61.3569803 z M 57.418195,29.769253 c -15.269915,2.6e-4 -27.648595,12.37864 -27.648955,27.64844 -6e-4,15.27046 12.37837,27.64973 27.648955,27.64999 5.101756,-0.003 10.103312,-1.41619 14.451314,-4.08502 l 16.810344,19.062917 c 2.736231,3.47423 8.240606,3.12607 11.366747,0 3.12611,-3.126817 3.4715,-8.630137 0,-11.366237 L 80.983682,71.870553 c 2.668574,-4.34871 4.0815,-9.35066 4.082955,-14.45286 -3.57e-4,-15.26969 -12.37864,-27.64802 -27.648442,-27.64844 z m -0.0016,11.50162 0.0016,0.002 -0.0021,0.004 c 1.054773,5.9e-4 2.107429,0.10477 3.141927,0.31058 h 0.0067 c 0.0073,0.004 0.01128,0.007 0.0186,0.007 1.030635,0.20588 2.038477,0.51184 3.009636,0.91364 0.973743,0.40297 1.905438,0.90059 2.782259,1.48518 0.01089,0.007 0.02218,0.0181 0.03307,0.0253 0.87097,0.58275 1.682791,1.24887 2.424658,1.98902 0.747145,0.74763 1.419045,1.5669 2.006079,2.44585 v 0.002 h 0.0021 c 1.173654,1.75844 1.990262,3.73 2.403988,5.80326 0.0039,0.007 0.0072,0.018 0.0072,0.0253 0.205813,1.0345 0.309993,2.08664 0.310575,3.14141 -0.0011,0.0395 -0.0026,0.0793 -0.0041,0.11886 -0.0028,0.41737 -0.0254,0.83387 -0.05994,1.25005 -0.01103,0.12547 -0.02324,0.25051 -0.03721,0.37569 -0.04147,0.38387 -0.0966,0.76654 -0.165364,1.14721 -0.01319,0.0821 -0.0274,0.16405 -0.04186,0.24598 -0.0011,0.007 -9.51e-4,0.0109 -0.0016,0.0145 -0.08222,0.41451 -0.186165,0.82526 -0.300756,1.23352 -0.04922,0.17003 -0.101276,0.33913 -0.156063,0.50746 -0.0844,0.26593 -0.178237,0.52976 -0.276469,0.79169 -0.07714,0.2097 -0.158652,0.41741 -0.24443,0.62373 -0.141885,0.33505 -0.295393,0.66601 -0.460954,0.9927 -0.08309,0.16249 -0.168798,0.3236 -0.257348,0.48318 -0.148799,0.2703 -0.308274,0.5359 -0.473873,0.79892 -0.07831,0.13025 -0.158335,0.25958 -0.240295,0.38757 v 0.002 c -0.241199,0.36052 -0.502605,0.71056 -0.77618,1.05471 -0.09239,0.11601 -0.186605,0.23074 -0.282154,0.34417 -0.285217,0.33941 -0.581424,0.6717 -0.898653,0.99219 -0.01691,0.0182 -0.03364,0.0366 -0.05064,0.0548 -0.02004,0.0188 -0.04034,0.0376 -0.06046,0.0563 -0.315772,0.31251 -0.643238,0.60451 -0.977202,0.88573 -0.122578,0.1033 -0.246987,0.20478 -0.372587,0.30438 -0.310686,0.24593 -0.627584,0.47945 -0.951363,0.69918 -0.17022,0.11287 -0.342385,0.22234 -0.516764,0.32866 -0.244472,0.1528 -0.491938,0.29958 -0.74259,0.43822 -0.168779,0.0938 -0.339046,0.18464 -0.51108,0.27233 -0.339788,0.17207 -0.683974,0.33342 -1.032495,0.47956 -0.02442,0.0109 -0.0489,0.0218 -0.07338,0.0326 -0.156404,0.062 -0.313539,0.12168 -0.471806,0.1788 -0.270297,0.10186 -0.54322,0.19675 -0.817521,0.2837 -0.173295,0.0562 -0.347867,0.10939 -0.522965,0.15968 -0.408905,0.1146 -0.819975,0.21942 -1.235067,0.30127 -0.08326,0.0144 -0.166644,0.0283 -0.250114,0.0413 -0.370634,0.067 -0.742552,0.11894 -1.116211,0.15968 -0.135189,0.0155 -0.270639,0.0292 -0.406177,0.0413 -0.41491,0.0364 -0.830359,0.057 -1.246435,0.0599 -0.0376,9.2e-4 -0.07556,0.003 -0.113172,0.004 -1.054699,1.6e-4 -2.106829,-0.10295 -3.141408,-0.308 -0.0108,-0.004 -0.0217,-0.007 -0.0326,-0.0108 -1.02864,-0.20567 -2.03456,-0.51123 -3.00395,-0.91209 -1.95879,-0.81159 -3.73881,-2.00117 -5.23792,-3.50056 -0.74695,-0.7471 -1.41853,-1.56544 -2.00556,-2.44378 l -0.002,-0.002 c -1.17376,-1.75841 -1.9907,-3.73052 -2.40451,-5.80378 l -0.004,-0.0253 c -0.20592,-1.03507 -0.31011,-2.08761 -0.31058,-3.14296 5.8e-4,-1.05478 0.10477,-2.1074 0.31058,-3.14192 l 0.004,-0.0253 c 0.41385,-2.07316 1.23079,-4.04494 2.40451,-5.80327 l 0.002,-0.002 c 0.58694,-0.87894 1.25852,-1.69821 2.00556,-2.44585 0.74196,-0.74016 1.5541,-1.40629 2.42517,-1.98903 0.0108,-0.007 0.0222,-0.0181 0.0331,-0.0253 0.87671,-0.58467 1.80859,-1.08209 2.78225,-1.48518 0.97116,-0.40179 1.979,-0.70777 3.00964,-0.91364 l 0.0181,-0.007 v -0.002 h 0.002 l 0.002,0.002 h 0.002 c 1.034063,-0.20631 2.085929,-0.3104 3.140375,-0.31161 z" />
</svg>
