<?xml version="1.0" encoding="UTF-8" standalone="no"?>
<svg
   width="132.29166mm"
   height="132.29172mm"
   viewBox="0 0 132.29166 132.29172"
   version="1.1"
   id="svg1"
   xml:space="preserve"
   xmlns:xlink="http://www.w3.org/1999/xlink"
   xmlns="http://www.w3.org/2000/svg"
   xmlns:svg="http://www.w3.org/2000/svg">
  <defs id="defs1"></defs>
  <path
     d="M 66.144218,4.4364064e-6 C 29.631698,4.4364064e-6 7.4347183e-6,29.633409 7.4347183e-6,66.145861 7.4347183e-6,102.65839 29.631698,132.29173 66.144218,132.29173 c 36.512512,0 66.147462,-29.63334 66.147462,-66.145869 C 132.29168,29.633409 102.65673,4.4364064e-6 66.144218,4.4364064e-6 Z m 0,25.4393735635936 c 22.45836,0 40.706482,18.248312 40.706482,40.706483 0,22.45837 -18.248182,40.704899 -40.706482,40.704899 -22.45818,0 -40.70489,-18.246529 -40.70489,-40.704899 0,-22.458171 18.24671,-40.706483 40.70489,-40.706483 z m 0,5.090125 c -19.71093,0 -35.61643,15.905493 -35.61643,35.616358 0,19.71113 15.9055,35.616369 35.61643,35.616369 19.71119,0 35.617962,-15.905239 35.617962,-35.616369 0,-19.710928 -15.906842,-35.616358 -35.617962,-35.616358 z m -13.99142,13.991418 38.16149,21.62494 -38.16149,21.62495 z"
     style="fill:#00cc00;fill-opacity:1;stroke-width:0.446589"
     id="path1-50" />
</svg>