<?xml version="1.0" encoding="UTF-8" standalone="no"?>
<svg
   width="87.3461mm"
   height="132.29169mm"
   viewBox="0 0 87.346097 132.29168"
   version="1.1"
   id="svg1"
   xmlns="http://www.w3.org/2000/svg">
  <g id="g418" transform="translate(2883.429,-1330.5895)">
    <path
       id="rect414"
       style="display:inline;opacity:1;fill:#002400;fill-opacity:1;stroke-width:0.4;paint-order:stroke fill markers"
       d="m -2832.7722,1338.8819 -40.9335,16.2476 c -5.2373,2.2443 -6.9198,5.4866 -5.0477,9.7265 1.6749,2.7136 4.2852,3.9926 7.831,3.8375 l 73.2617,-12.593 -9.3762,-4.53 -0.3271,-5.6973 -12.4726,-2.0303 -0.4987,-4.2763 z m 31.0136,35.3849 -60.7715,11.4004 v 20.2571 l 60.7715,-11.4003 z m -72.1062,0.018 v 81.4131 h 8.1142 v -81.4131 z m 72.1243,26.9606 -59.9447,12.5698 v 29.9723 l 59.9447,-12.5697 z" />
    <path
       id="path1-0-6"
       style="font-weight:bold;font-size:15.875px;line-height:1;font-family:'LEMON MILK';-inkscape-font-specification:'LEMON MILK Bold';text-align:center;letter-spacing:0px;text-anchor:middle;display:inline;opacity:1;fill:#00cc00;fill-opacity:1;stroke:none;stroke-width:0.180823;stroke-linecap:round;stroke-linejoin:round"
       d="m -3110.3967,1456.884 c -0.1163,0 -0.2422,0.038 -0.3726,0.1046 -3.2283,1.65 -13.9425,7.1295 -19.7074,10.1184 -2.143,1.3281 -2.6085,2.7876 -2.8018,3.8656 l 0.013,44.2776 c 0.1275,2.3073 3.7643,3.2477 5.4161,3.3406 1.9286,0.1084 12.4778,-2.378 34.4844,-6.0137 0.4594,-0.077 0.8312,-0.52 0.8312,-0.991 v -41.6019 c 0,-0.8554 -0.6789,-1.4308 -1.517,-1.286 -4.9235,0.851 -20.6733,3.5783 -30.0251,5.2517 -0.8369,0.1498 -2.1973,0.4168 -3.0552,0.4006 -4.2709,-0.079 -5.9251,-4.0447 -0.3989,-6.3535 6.0416,-2.2883 17.9676,-7.2409 17.9676,-7.2409 l -0.1971,-3.1914 c -0.027,-0.4384 -0.2883,-0.6932 -0.6372,-0.6807 z m 6.5522,4.1872 c -0.043,0 -0.071,0.014 -0.1355,0.035 v -3e-4 c -2.874,1.0704 -18.1099,6.7548 -26.032,9.9173 l 26.6202,-7.918 -0.087,-1.6611 c -0.011,-0.2133 -0.1413,-0.3508 -0.3153,-0.3659 -0.02,0 -0.036,-0.01 -0.05,-0.01 z m 6.0481,2.9418 c -0.054,0 -0.1754,0.022 -0.1754,0.022 v -3e-4 c -3.4736,0.9525 -21.544,5.9165 -30.8448,8.6344 0.6342,0.1587 1.6266,0.2864 2.7344,0.082 l 28.8381,-5.8859 -0.1128,-2.3787 c -0.013,-0.2755 -0.1978,-0.4611 -0.4395,-0.4735 z m -29.1903,14.1607 c 0.5153,-10e-5 0.9331,0.4176 0.9331,0.9329 v 34.1684 c 0,0.5153 -0.4178,0.933 -0.9331,0.9329 -0.5152,0 -0.9329,-0.4177 -0.9329,-0.9329 v -34.1684 c 0,-0.5152 0.4177,-0.9329 0.9329,-0.9329 z m 29.3034,2.1584 v 3e-4 c 1.1506,0.01 1.9774,0.7957 1.9774,1.9867 0,1.35 -1.0798,2.5727 -2.4916,2.8293 -1.4089,0.2562 -2.4862,-0.5744 -2.4862,-1.9243 0,-1.3612 1.0799,-2.5898 2.4889,-2.8459 0.1761,-0.032 0.3471,-0.047 0.5115,-0.046 z m -3.591,0.727 v 4.5334 l -1.2036,0.2188 v -4.5333 z m -7.3626,0.017 -0.6692,1.0696 -0.7567,0.1374 0.4838,-1.0356 z m 10.7034,0.4243 c -0.084,-8e-4 -0.1713,0.01 -0.2613,0.023 -0.72,0.1309 -1.2711,0.771 -1.2711,1.4712 0,0.6975 0.5511,1.1344 1.2711,1.0035 0.7199,-0.1309 1.2713,-0.7681 1.2713,-1.4656 0,-0.6127 -0.4222,-1.0259 -1.01,-1.032 z m -6.7337,0.2058 c 0.7897,-0.01 1.3258,0.4916 1.3258,1.2027 0,0.5653 -0.3403,1.0996 -0.7846,1.3829 l 1.2149,1.5987 -1.409,0.256 -1.212,-1.7481 v 1.9687 l -1.2036,0.2189 -0.01,-4.5326 1.7209,-0.3129 c 0.1224,-0.022 0.2404,-0.033 0.3532,-0.034 z m -4.6363,0.7567 2.1093,4.2062 -1.3188,0.2399 -0.2278,-0.4872 -1.6932,0.3076 -0.2305,0.5708 -1.3161,0.2391 2.1063,-4.9725 z m 4.3514,0.3558 c -0.031,2e-4 -0.062,2e-4 -0.094,0.01 l -0.492,0.089 v 0.9083 l 0.492,-0.087 c 0.256,-0.044 0.4893,-0.2662 0.4893,-0.5446 0,-0.246 -0.1806,-0.3776 -0.3953,-0.3758 z m -7.4815,0.264 v 4.5839 l -0.3823,0.07 -2.3315,-1.8345 v 2.2161 l -1.2036,0.2188 v -4.5813 l 0.3881,-0.071 2.3228,1.8277 v -2.2105 z m -4.7049,0.861 v 4.5334 l -1.2036,0.2188 v -4.5333 z m -1.9912,0.3619 v 4.5335 l -1.2009,0.2184 v -1.7071 l -1.3471,0.2449 v 1.7071 l -1.2035,0.2189 v -4.5336 l 1.2035,-0.2188 v 1.7016 l 1.3471,-0.2449 v -1.7016 z m 9.5423,0.3155 -0.467,1.159 0.931,-0.1692 z m 9.413,8.3784 c 0.2603,0.01 0.4559,0.199 0.4559,0.4749 v 9.1373 c 0,0.3152 -0.2559,0.6184 -0.571,0.6769 -0.3152,0.058 -0.571,-0.15 -0.571,-0.4653 v -9.1372 c 0,-0.3153 0.2559,-0.6185 0.571,-0.6769 0.039,-0.01 0.078,-0.01 0.1152,-0.01 z m -9.8223,1.059 c 0.2601,0.01 0.456,0.199 0.456,0.4751 v 10.6593 c 0,0.3153 -0.2558,0.6185 -0.571,0.6769 -0.3153,0.058 -0.5711,-0.15 -0.5711,-0.4652 v -10.6593 c 0,-0.3153 0.2558,-0.6185 0.5711,-0.6769 0.039,-0.01 0.078,-0.011 0.115,-0.01 z m 4.9105,0.3276 c 0.2603,0.01 0.4561,0.199 0.4561,0.4749 v 8.1841 c 0,0.3152 -0.2558,0.6187 -0.571,0.6771 -0.3153,0.059 -0.5711,-0.15 -0.5711,-0.4652 v -8.1844 c 0,-0.3152 0.2558,-0.6184 0.5711,-0.6769 0.039,-0.01 0.078,-0.01 0.1149,-0.01 z m -6.5133,0.7318 c 0.2598,0.01 0.4542,0.2026 0.4522,0.4788 l -0.061,9.1488 c 0,0.3145 -0.2572,0.6149 -0.571,0.6731 v 4e-4 c -0.3152,0.057 -0.5695,-0.1544 -0.5672,-0.47 l 0.061,-9.1486 c 0,-0.3145 0.2572,-0.6149 0.571,-0.6731 v -4e-4 c 0.039,-0.01 0.078,-0.01 0.115,-0.01 z m 13.0624,0.1775 c 0.2601,0.01 0.4561,0.1988 0.4561,0.4748 v 3.9392 c 0,0.3152 -0.2559,0.6184 -0.5711,0.6768 -0.3152,0.059 -0.5711,-0.15 -0.5711,-0.4652 v -3.9391 c 0,-0.3153 0.2559,-0.6185 0.5711,-0.6769 0.039,-0.01 0.078,-0.01 0.115,-0.01 z m -4.9116,0.3471 c 0.2603,0.01 0.4561,0.199 0.4561,0.4749 v 5.0643 c 0,0.3153 -0.2561,0.6185 -0.5713,0.6769 -0.3152,0.058 -0.5711,-0.15 -0.5711,-0.4652 v -5.0644 c 0,-0.3152 0.2559,-0.6185 0.5711,-0.6769 0.04,-0.01 0.078,-0.01 0.1152,-0.01 z m -13.0968,0.3912 c 0.2602,0.01 0.4558,0.1991 0.4558,0.4749 v 9.1373 c 0,0.3152 -0.2558,0.6184 -0.5711,0.6769 -0.3152,0.058 -0.571,-0.15 -0.571,-0.4653 v -9.1373 c 0,-0.3152 0.2558,-0.6184 0.571,-0.6768 0.04,-0.01 0.078,-0.01 0.1153,-0.01 z m 8.1853,0.291 c 0.2603,0.01 0.4558,0.199 0.4558,0.4749 v 5.5206 c 0,0.3153 -0.2558,0.6185 -0.571,0.6769 -0.3153,0.058 -0.5711,-0.15 -0.5711,-0.4652 v -5.5207 c 0,-0.3152 0.2558,-0.6185 0.5711,-0.6769 0.039,-0.01 0.078,-0.01 0.1152,-0.01 z m 11.4599,0.3271 c 0.2601,0.01 0.456,0.1988 0.456,0.4749 v 0.619 c 0,0.3152 -0.2558,0.6185 -0.571,0.6769 -0.3153,0.058 -0.5711,-0.15 -0.5711,-0.4652 v -0.6191 c 0,-0.3152 0.2558,-0.6184 0.5711,-0.6769 0.039,-0.01 0.078,-0.01 0.115,-0.01 z m -4.9111,0.1249 c 0.2602,0.01 0.4561,0.1987 0.4561,0.4748 v 2.1896 c 0,0.3152 -0.2558,0.6186 -0.5711,0.6771 -0.3152,0.058 -0.5711,-0.15 -0.5711,-0.4653 v -2.1895 c 0,-0.3152 0.2559,-0.6187 0.5711,-0.6771 0.039,-0.01 0.078,-0.01 0.115,-0.01 z m -11.4596,0.03 c 0.2601,0.01 0.4561,0.1991 0.4561,0.4749 v 6.3772 c 0,0.3152 -0.2559,0.6184 -0.5711,0.6769 -0.3152,0.058 -0.5711,-0.15 -0.5711,-0.4653 v -6.3771 c 0,-0.3153 0.2559,-0.6185 0.5711,-0.6769 0.039,-0.01 0.078,-0.01 0.115,-0.01 z m 6.5481,0.5832 c 0.2601,0.01 0.456,0.1993 0.456,0.4751 v 2.784 c 0,0.3152 -0.2558,0.6184 -0.571,0.6768 -0.3153,0.059 -0.5711,-0.15 -0.5711,-0.4652 v -2.784 c 0,-0.3152 0.2558,-0.6184 0.5711,-0.6769 0.039,-0.01 0.078,-0.011 0.115,-0.01 z m -13.0969,0.5529 c 0.2603,0.01 0.4558,0.1993 0.4558,0.4752 v 6.5329 c 0,0.3152 -0.2558,0.6184 -0.571,0.6768 -0.3153,0.058 -0.5711,-0.15 -0.5711,-0.4652 v -6.5329 c 0,-0.3152 0.2558,-0.6184 0.5711,-0.6769 0.039,-0.01 0.078,-0.011 0.1152,-0.01 z m 1.6372,1.1477 c 0.2602,0 0.4561,0.1988 0.4561,0.4749 v 3.6308 c 0,0.3152 -0.2558,0.6185 -0.571,0.6769 -0.3153,0.058 -0.5711,-0.15 -0.5711,-0.4652 v -3.6306 c 0,-0.3152 0.2558,-0.6185 0.5711,-0.6769 0.039,-0.01 0.078,-0.011 0.1149,-0.01 z m 3.2743,0.4768 c 0.2602,0 0.4561,0.1988 0.4561,0.4749 v 1.4635 c 0,0.3152 -0.2558,0.6184 -0.5711,0.6769 -0.3152,0.058 -0.571,-0.15 -0.571,-0.4653 v -1.4634 c 0,-0.3153 0.2558,-0.6185 0.571,-0.6769 0.039,-0.01 0.078,-0.01 0.115,-0.01 z m -6.5485,1.517 c 0.2601,0.01 0.456,0.1993 0.456,0.4751 v 0.8565 c 0,0.3152 -0.2558,0.6185 -0.571,0.6769 -0.3153,0.058 -0.5711,-0.1498 -0.5711,-0.465 v -0.8567 c 0,-0.3153 0.2558,-0.6185 0.5711,-0.6769 0.039,-0.01 0.078,-0.011 0.115,-0.01 z"
       transform="matrix(2.1437414,0,0,2.1437414,3833.5098,-1792.5921)" />
  </g>
</svg>
