<?xml version="1.0" encoding="UTF-8" standalone="no"?>
<svg
   width="87.346092mm"
   height="132.29164mm"
   viewBox="0 0 87.346089 132.29163"
   version="1.1"
   id="svg1"
   sodipodi:docname="favicon.svg"
   xmlns:inkscape="http://www.inkscape.org/namespaces/inkscape"
   xmlns:sodipodi="http://sodipodi.sourceforge.net/DTD/sodipodi-0.dtd"
   xmlns="http://www.w3.org/2000/svg"
   xmlns:svg="http://www.w3.org/2000/svg">
  <defs
     id="defs1" />
  <sodipodi:namedview
     id="namedview1"
     pagecolor="#505050"
     bordercolor="#eeeeee"
     borderopacity="1"
     inkscape:showpageshadow="0"
     inkscape:pageopacity="0"
     inkscape:pagecheckerboard="0"
     inkscape:deskcolor="#505050"
     inkscape:document-units="mm"
     showguides="true">
    <inkscape:page
       x="0"
       y="8.7479559e-27"
       width="87.346092"
       height="132.29164"
       id="page2"
       margin="0"
       bleed="0" />
  </sodipodi:namedview>
  <g
     id="g8"
     transform="translate(0,-9.1539076e-5)">
    <path
       id="rect414"
       style="display:inline;opacity:1;fill:#002400;fill-opacity:1;stroke-width:0.4;paint-order:stroke fill markers"
       d="M 50.841341,8.3018188 9.7233,24.54 c -5.2373,2.2443 -6.9198,5.4866 -5.0477,9.7265 1.6749,2.7136 4.2852,3.9926 7.831,3.8375 L 85.7683,25.511 76.3921,20.981 76.065,15.2837 63.5924,13.2534 63.0937,8.9771 Z m 30.829062,28.3989492 -60.771502,10.634773 1e-6,28.865564 60.771501,-10.634773 z M 9.5642,43.6953 v 81.4131 h 8.1142 V 43.6953 Z M 81.670403,75.994859 20.898902,86.629632 v 27.976808 l 60.771501,-10.63477 z"
       sodipodi:nodetypes="ccccccccccccccccccccccccc" />
    <path
       id="path1-0-6"
       style="font-weight:bold;font-size:15.875px;line-height:1;font-family:'LEMON MILK';-inkscape-font-specification:'LEMON MILK Bold';text-align:center;letter-spacing:0px;text-anchor:middle;display:inline;opacity:1;fill:#00cc00;fill-opacity:1;stroke:none;stroke-width:0.387638;stroke-linecap:round;stroke-linejoin:round"
       d="m 49.05282,0.00103353 c -0.249317,0 -0.519374,0.08150254 -0.798918,0.22427571 C 41.333261,3.7624826 18.364806,15.509063 6.0063517,21.916492 1.4123139,24.763595 0.41438521,27.892371 0,30.203324 l 0.02790527,94.919786 c 0.27332703,4.94625 8.06962913,6.96216 11.61066073,7.16132 4.13442,0.23238 26.749261,-5.09772 73.92572,-12.89172 0.984835,-0.16507 1.781804,-1.11472 1.781804,-2.12442 V 28.084591 c 0,-1.833757 -1.455328,-3.067351 -3.251998,-2.756938 -10.55471,1.824324 -44.318256,7.670891 -64.366097,11.258228 -1.794097,0.321133 -4.710356,0.893591 -6.549471,0.858862 C 4.0228182,37.275387 0.47653515,28.773856 12.323279,23.824386 25.274907,18.918863 50.841341,8.3018188 50.841341,8.3018188 L 50.418628,1.460376 C 50.360747,0.5205597 49.800771,-0.02576324 49.05282,0.00103353 Z m 14.046688,8.96999507 -5.17e-4,0.0062 c -0.09218,0 -0.15215,0.029912 -0.290422,0.074931 V 9.0516439 C 56.647456,11.346304 23.985607,23.532263 7.0026733,30.311845 L 64.069474,13.337687 63.882922,9.7766642 C 63.859342,9.3194041 63.580006,9.0245865 63.206995,8.992216 c -0.04288,0 -0.07747,-0.021187 -0.107487,-0.021187 z m 12.9651,6.3127934 c -0.115762,0 -0.376205,0.04702 -0.376205,0.04702 v -5.17e-4 c -7.4465,2.041914 -46.184585,12.683507 -66.1230954,18.509982 1.3595604,0.340212 3.4868204,0.613881 5.8616574,0.1757 l 61.82155,-12.617835 -0.241846,-5.09943 C 76.978799,15.708141 76.58275,15.3104 76.064608,15.283817 Z m 0.242879,25.912113 c 2.466612,0.02087 4.239018,1.716265 4.239018,4.269507 0,2.893875 -2.315282,5.509876 -5.341793,6.05286 -3.020482,0.541903 -5.329391,-1.244373 -5.329391,-4.138248 0,-2.917991 2.31511,-5.546099 5.335592,-6.088001 0.37756,-0.06774 0.744201,-0.0991 1.096574,-0.09612 z m -23.481771,1.537891 -1.435054,2.289266 -1.621607,0.290938 1.036629,-2.217953 z m 15.783533,0.0016 v 9.718787 l -2.580204,0.46302 v -9.718786 z m 7.161837,0.962732 c -0.18002,-0.0023 -0.367248,0.01293 -0.560173,0.04754 -1.5434,0.2769 -2.725415,1.646415 -2.725415,3.147612 0,1.495169 1.182015,2.434908 2.725415,2.158008 1.5434,-0.2769 2.724898,-1.640557 2.724898,-3.135726 0,-1.313548 -0.90459,-2.201429 -2.164725,-2.217436 z m -14.435295,0.406693 c 1.692875,-0.0087 2.842204,1.060296 2.842204,2.584856 0,1.21181 -0.7295,2.355561 -1.682068,2.960542 l 2.604492,3.433383 -3.020487,0.542085 -2.598291,-3.754292 v 4.220414 l -2.580721,0.463021 -0.01189,-9.71672 3.689697,-0.661975 c 0.262258,-0.04705 0.515221,-0.07007 0.75706,-0.07131 z m -47.847725,1.535824 c 1.10467,-2.14e-4 2.000394,0.895208 2.000394,1.999878 V 120.8888 c 0,1.10467 -0.895724,2.00009 -2.000394,1.99987 -1.104456,0 -1.999878,-0.89542 -1.999878,-1.99987 V 47.640503 c 0,-1.104455 0.895422,-1.999878 1.999878,-1.999878 z m 37.908797,0.06253 4.521688,9.027873 -2.827735,0.507463 -0.488342,-1.045931 -3.629236,0.651123 -0.494543,1.222147 -2.821534,0.506429 4.515487,-10.649479 z m 9.328629,0.785482 c -0.06578,4.03e-4 -0.133196,0.0064 -0.201021,0.0186 l -1.055233,0.189136 v 1.947684 l 1.055233,-0.183451 c 0.548631,-0.0924 1.049032,-0.567926 1.049032,-1.164787 0,-0.527529 -0.387576,-0.810004 -0.848011,-0.807186 z m -16.038814,0.5271 v 9.82679 l -0.820105,0.147278 -4.998144,-3.944462 v 4.750614 l -2.580205,0.463021 V 48.43787 l 0.831991,-0.149345 4.980058,3.929476 v -4.738729 z m -10.086723,1.821594 v 9.71827 l -2.580204,0.463021 v -9.718787 z m -4.268473,0.765845 v 9.71827 l -2.574003,0.461987 v -3.659725 l -2.888196,0.518315 v 3.659725 l -2.580204,0.462504 v -9.71827 l 2.580204,-0.463021 v 3.647323 l 2.888196,-0.517798 v -3.64784 z m 20.456116,0.72502 -1.000456,2.482536 1.995227,-0.358118 z m 23.452832,5.596558 v 7.294645 l 3.719669,-0.667143 v 2.423625 l -6.30039,1.130163 v -9.718269 z m -8.072893,1.327567 4.521688,9.027873 -2.827734,0.507463 -0.488342,-1.045931 -3.629236,0.651123 -0.494544,1.222147 -2.821533,0.506429 4.516004,-10.649479 z m -4.913395,1.002006 v 2.411739 l -2.327506,0.417546 v 7.307048 l -2.586406,0.464054 v -7.307048 l -2.333191,0.418579 v -2.411739 z m -8.344193,1.497067 v 9.718786 l -2.580205,0.463021 v -9.718787 z m -7.954553,1.296045 c 0.960857,0.01752 1.915259,0.280364 2.516642,0.728637 l -1.428854,2.215886 c -0.542601,-0.409084 -1.320678,-0.595355 -2.038118,-0.466639 -1.446937,0.259594 -2.718697,1.675871 -2.718697,3.177068 0,1.362533 1.091065,2.492739 2.887679,2.17041 1.175637,-0.21092 2.013834,-0.927996 2.050004,-1.862936 l -2.22467,0.399459 v -1.923397 l 4.985742,-0.894519 c 0.04824,0.316906 0.07855,0.625286 0.07855,0.93276 0,2.954164 -2.230704,5.265497 -4.991943,5.760889 -3.0868,0.5538 -5.420341,-1.330846 -5.420341,-4.104143 0,-2.773297 2.339225,-5.525993 5.353678,-6.066813 0.308981,-0.05091 0.630044,-0.0725 0.95033,-0.06666 z m 20.603393,0.829923 -1.000972,2.482536 1.995743,-0.358118 z m -28.173474,0.659391 v 9.718787 l -2.580204,0.462504 v -9.71827 z m -7.992277,1.515153 c 2.599895,-0.07986 4.146,1.387517 4.146,4.046265 0,3.014454 -2.019865,5.20949 -5.323706,5.80223 l -3.170866,0.568957 v -9.712585 l 3.170866,-0.574642 v -5.17e-4 c 0.41298,-0.0756 0.806292,-0.118298 1.177706,-0.129708 z m -0.623218,2.48512 c -0.195763,0.0068 -0.40284,0.02914 -0.620634,0.06821 l -0.590661,0.105937 v 4.877738 l 0.614949,-0.110588 c 1.724267,-0.309349 2.779159,-1.415075 2.779159,-2.922302 0,-1.334649 -0.812473,-2.066285 -2.182813,-2.018998 z m 41.314274,15.035775 v 5.16e-4 c 0.530321,0.02038 0.929142,0.405791 0.929142,0.9679 v 18.615913 c 0,0.64218 -0.521773,1.25955 -1.163753,1.37873 -0.642171,0.11812 -1.162719,-0.30537 -1.162719,-0.94775 V 82.972196 c 0,-0.642381 0.520748,-1.260263 1.162719,-1.379244 0.07945,-0.02038 0.158819,-0.02015 0.234611,-0.02015 z m -20.011698,2.158007 c 0.529922,0.02038 0.929659,0.4059 0.929659,0.968417 v 21.716505 c 0,0.64239 -0.521573,1.26027 -1.163753,1.37924 -0.64238,0.11817 -1.163237,-0.30557 -1.163237,-0.94775 V 85.130204 c 0,-0.642382 0.520857,-1.260263 1.163237,-1.379244 0.07945,-0.02038 0.15871,-0.02218 0.234094,-0.02015 z m 10.005074,0.667143 v 5.17e-4 c 0.53032,0.02038 0.929142,0.405274 0.929142,0.967383 v 16.674429 c 0,0.64218 -0.521572,1.26028 -1.163753,1.37925 -0.642379,0.12021 -1.163237,-0.30558 -1.163237,-0.94775 V 85.797347 c 0,-0.642178 0.520858,-1.260058 1.163237,-1.379244 0.07945,-0.02038 0.159426,-0.02015 0.234611,-0.02015 z m -13.270508,1.489832 v 0.0015 c 0.529304,0.02038 0.925459,0.412931 0.921391,0.975651 l -0.124024,18.639686 c 0,0.64075 -0.524424,1.25241 -1.163753,1.37098 v 0.001 c -0.64218,0.11614 -1.16017,-0.31457 -1.155485,-0.95756 l 0.12454,-18.639174 c 0,-0.640752 0.523908,-1.252918 1.163237,-1.371493 v -5.16e-4 c 0.07945,-0.02038 0.15871,-0.02015 0.234094,-0.02015 z m 26.612846,0.362768 v 5.17e-4 c 0.529922,0.02038 0.929659,0.405069 0.929659,0.967383 v 8.02535 c 0,0.642177 -0.521573,1.260269 -1.163753,1.379244 -0.642171,0.12021 -1.163237,-0.30557 -1.163237,-0.947746 v -8.02535 c 0,-0.642381 0.521066,-1.260261 1.163237,-1.379244 0.07945,-0.02038 0.15871,-0.02015 0.234094,-0.02015 z M 63.4137,86.957483 V 86.958 c 0.530321,0.02038 0.929143,0.405789 0.929143,0.967899 v 10.317717 c 0,0.64238 -0.522089,1.260254 -1.16427,1.379244 -0.64217,0.11811 -1.163237,-0.306083 -1.163237,-0.948263 V 88.356881 c 0,-0.642178 0.521067,-1.260262 1.163237,-1.379244 0.08154,-0.02038 0.159334,-0.02015 0.235127,-0.02015 z M 36.730058,87.75485 v 5.17e-4 c 0.530131,0.02038 0.929142,0.405478 0.929142,0.967383 v 18.61592 c 0,0.64218 -0.521373,1.26005 -1.163753,1.37924 -0.64218,0.11817 -1.163237,-0.30536 -1.163237,-0.94774 V 89.153731 c 0,-0.642177 0.521057,-1.259745 1.163237,-1.378727 0.08145,-0.02038 0.158619,-0.02015 0.234611,-0.02015 z m 16.677018,0.592729 v 5.17e-4 c 0.53033,0.02038 0.928625,0.405275 0.928625,0.967383 v 11.247891 c 0,0.64238 -0.521573,1.25974 -1.163753,1.37873 -0.64238,0.11816 -1.163236,-0.30557 -1.163236,-0.94775 V 89.746977 c 0,-0.642179 0.520856,-1.260261 1.163236,-1.379244 0.07945,-0.02038 0.159345,-0.02015 0.235128,-0.02015 z m 23.347929,0.666626 v 5.17e-4 c 0.529922,0.02038 0.929142,0.404866 0.929142,0.967382 v 1.260905 c 0,0.642177 -0.521573,1.260263 -1.163753,1.379244 -0.64238,0.118167 -1.163237,-0.305568 -1.163237,-0.947745 v -1.261422 c 0,-0.642178 0.520857,-1.259541 1.163237,-1.378727 0.07945,-0.02038 0.159227,-0.02015 0.234611,-0.02015 z m -10.006108,0.254248 v 5.17e-4 c 0.530121,0.02038 0.929659,0.404867 0.929659,0.967383 v 4.460709 c 0,0.642181 -0.521364,1.260574 -1.163753,1.379761 -0.642171,0.11817 -1.163236,-0.305367 -1.163236,-0.947746 v -4.460709 c 0,-0.642178 0.521065,-1.260779 1.163236,-1.379761 0.07945,-0.02038 0.15871,-0.02015 0.234094,-0.02015 z m -23.347412,0.0615 v 5.17e-4 c 0.529921,0.02038 0.929659,0.405478 0.929659,0.967382 v 12.992498 c 0,0.64217 -0.521582,1.26005 -1.163753,1.37923 -0.64218,0.11818 -1.163237,-0.30538 -1.163237,-0.94774 V 90.728829 c 0,-0.64238 0.521057,-1.259745 1.163237,-1.378727 0.07945,-0.02038 0.15871,-0.02015 0.234094,-0.02015 z m 13.341305,1.188041 v 5.17e-4 c 0.529912,0.02038 0.929142,0.405993 0.929142,0.967899 v 5.672006 c 0,0.64218 -0.521573,1.259737 -1.163753,1.378727 -0.642379,0.1202 -1.163237,-0.305566 -1.163237,-0.947746 v -5.672005 c 0,-0.642178 0.520858,-1.259541 1.163237,-1.378727 0.07945,-0.02038 0.159227,-0.02271 0.234611,-0.02067 z M 30.059664,91.64454 v 5.17e-4 c 0.530321,0.02038 0.928625,0.405791 0.928625,0.9679 v 13.309783 c 0,0.64218 -0.521573,1.26027 -1.163753,1.37925 -0.64238,0.11817 -1.163236,-0.30557 -1.163236,-0.94775 V 93.043933 c 0,-0.642179 0.520856,-1.259541 1.163236,-1.378727 0.07945,-0.02038 0.159336,-0.02271 0.235128,-0.02067 z m 3.335197,2.338876 c 0.530121,0 0.929659,0.404863 0.929659,0.967382 v 7.396972 c 0,0.64218 -0.521573,1.26027 -1.163753,1.37924 -0.64238,0.11817 -1.163237,-0.30556 -1.163237,-0.94774 v -7.396973 c 0,-0.642171 0.520857,-1.260262 1.163237,-1.379244 0.07945,-0.02038 0.158919,-0.02167 0.234094,-0.01964 z m 6.67091,0.970483 v 5.17e-4 c 0.530121,0 0.92966,0.405383 0.92966,0.967899 v 2.981214 c 0,0.64218 -0.521374,1.260061 -1.163754,1.379251 -0.64218,0.11817 -1.163236,-0.305363 -1.163236,-0.947753 v -2.98173 c 0,-0.642376 0.521056,-1.260257 1.163236,-1.379244 0.07945,-0.02034 0.15871,-0.02015 0.234094,-0.02015 z M 26.72395,98.045178 c 0.529921,0.0203 0.929659,0.406 0.929659,0.9679 v 1.745112 c 0,0.64217 -0.521573,1.26026 -1.163753,1.37924 -0.64238,0.11817 -1.163237,-0.30556 -1.163237,-0.94774 v -1.745114 c 0,-0.64238 0.520857,-1.260264 1.163237,-1.379244 0.07945,-0.0203 0.15871,-0.02205 0.234094,-0.02015 z" />
  </g>
</svg>
